<svg width="698" height="125" viewBox="0 0 698 125" fill="none" xmlns="http://www.w3.org/2000/svg">
<path d="M92.6667 99.8133V122H0.165334V2.53332H90.448V24.72H27.6427V50.6613H83.1093V72.1653H27.6427V99.8133H92.6667ZM156.495 123.365C146.71 123.365 137.892 121.374 130.041 117.392C122.304 113.296 116.217 107.664 111.78 100.496C107.456 93.328 105.295 85.1929 105.295 76.0907C105.295 66.9884 107.456 58.8533 111.78 51.6853C116.217 44.5173 122.304 38.9422 130.041 34.96C137.892 30.864 146.71 28.816 156.495 28.816C166.166 28.816 174.585 30.864 181.753 34.96C189.035 38.9422 194.326 44.688 197.625 52.1973L176.975 63.2907C172.196 54.8711 165.312 50.6613 156.324 50.6613C149.384 50.6613 143.638 52.9369 139.087 57.488C134.536 62.0391 132.26 68.24 132.26 76.0907C132.26 83.9413 134.536 90.1422 139.087 94.6933C143.638 99.2444 149.384 101.52 156.324 101.52C165.426 101.52 172.31 97.3102 176.975 88.8907L197.625 100.155C194.326 107.436 189.035 113.125 181.753 117.221C174.585 121.317 166.166 123.365 156.495 123.365ZM255.479 123.365C245.808 123.365 237.104 121.374 229.367 117.392C221.744 113.296 215.77 107.664 211.447 100.496C207.123 93.328 204.961 85.1929 204.961 76.0907C204.961 66.9884 207.123 58.8533 211.447 51.6853C215.77 44.5173 221.744 38.9422 229.367 34.96C237.104 30.864 245.808 28.816 255.479 28.816C265.15 28.816 273.797 30.864 281.42 34.96C289.043 38.9422 295.016 44.5173 299.34 51.6853C303.664 58.8533 305.825 66.9884 305.825 76.0907C305.825 85.1929 303.664 93.328 299.34 100.496C295.016 107.664 289.043 113.296 281.42 117.392C273.797 121.374 265.15 123.365 255.479 123.365ZM255.479 101.52C262.305 101.52 267.88 99.2444 272.204 94.6933C276.641 90.0284 278.86 83.8276 278.86 76.0907C278.86 68.3538 276.641 62.2098 272.204 57.6587C267.88 52.9938 262.305 50.6613 255.479 50.6613C248.652 50.6613 243.02 52.9938 238.583 57.6587C234.145 62.2098 231.927 68.3538 231.927 76.0907C231.927 83.8276 234.145 90.0284 238.583 94.6933C243.02 99.2444 248.652 101.52 255.479 101.52ZM379.429 28.816C390.807 28.816 399.966 32.2293 406.907 39.056C413.961 45.8827 417.488 56.0089 417.488 69.4347V122H390.864V73.5307C390.864 66.2489 389.271 60.8444 386.085 57.3173C382.9 53.6764 378.292 51.856 372.261 51.856C365.548 51.856 360.201 53.9609 356.219 58.1707C352.236 62.2667 350.245 68.4107 350.245 76.6027V122H323.621V30.1813H349.051V40.9333C352.578 37.0649 356.958 34.1067 362.192 32.0587C367.426 29.8969 373.172 28.816 379.429 28.816ZM501.355 124.048C488.953 124.048 477.746 121.374 467.733 116.027C457.835 110.679 450.041 103.34 444.352 94.0107C438.777 84.5671 435.989 73.9858 435.989 62.2667C435.989 50.5476 438.777 40.0231 444.352 30.6933C450.041 21.2498 457.835 13.8542 467.733 8.50666C477.746 3.1591 488.953 0.485328 501.355 0.485328C513.756 0.485328 524.907 3.1591 534.805 8.50666C544.704 13.8542 552.498 21.2498 558.187 30.6933C563.876 40.0231 566.72 50.5476 566.72 62.2667C566.72 73.9858 563.876 84.5671 558.187 94.0107C552.498 103.34 544.704 110.679 534.805 116.027C524.907 121.374 513.756 124.048 501.355 124.048ZM501.355 100.496C508.409 100.496 514.78 98.9031 520.469 95.7173C526.158 92.4178 530.596 87.8667 533.781 82.064C537.081 76.2613 538.731 69.6622 538.731 62.2667C538.731 54.8711 537.081 48.272 533.781 42.4693C530.596 36.6667 526.158 32.1724 520.469 28.9867C514.78 25.6871 508.409 24.0373 501.355 24.0373C494.3 24.0373 487.929 25.6871 482.24 28.9867C476.551 32.1724 472.057 36.6667 468.757 42.4693C465.572 48.272 463.979 54.8711 463.979 62.2667C463.979 69.6622 465.572 76.2613 468.757 82.064C472.057 87.8667 476.551 92.4178 482.24 95.7173C487.929 98.9031 494.3 100.496 501.355 100.496ZM697.067 2.53332V122H674.368L614.805 49.4667V122H587.499V2.53332H610.368L669.76 75.0667V2.53332H697.067Z" fill="#56B33E"/>
</svg>
