<svg width="53" height="39" viewBox="0 0 53 39" fill="none" xmlns="http://www.w3.org/2000/svg">
<path d="M23.5735 10.4049L22.598 9.42944L50.0735 0V1.62577L23.5735 10.4049Z" fill="#93550D"/>
<path d="M31.2146 17.8834L24.7115 11.5429L50.2361 2.92639V20.4847C49.1956 25.8172 45.2504 26.5 43.4079 26.1748C46.1391 25.9147 47.2555 23.2485 47.4723 21.9479C47.689 20.6472 47.4723 10.8926 47.4723 10.8926C47.4723 10.8926 47.1471 8.454 45.0336 8.454C42.9201 8.454 42.4324 10.8926 42.4324 10.8926V24.2239L40.4815 23.7362V12.5184C40.4815 12.5184 39.8312 10.8926 38.368 10.8926C36.9048 10.8926 36.2545 12.5184 36.2545 12.5184V21.6227L34.7913 20.9724V14.9571C34.7913 14.9571 34.3036 13.4939 33.003 13.4939C31.7023 13.4939 31.2146 14.9571 31.2146 14.9571V17.8834Z" fill="#93550D"/>
<path d="M0 2.27595L9.75459 18.8588C14.0466 16.3875 22.273 20.6472 24.8742 21.6227C27.4754 22.5981 32.0276 25.0368 35.4417 26.5C38.8558 27.9632 44.0583 28.1257 45.684 27.4754C48.6104 25.8497 49.5859 23.2485 50.0736 21.4601C50.2953 20.6472 50.3987 14.4693 50.2362 11.3804C50.0736 14.1984 49.0331 20.0945 46.8221 23.0859C44.611 26.0773 41.2944 25.3266 39.9938 24.8742C36.2546 23.5736 31.5715 20.1749 27.638 16.4202C20.4846 9.59202 16.5828 6.99079 13.9816 5.36503C11.3804 3.73926 9.59235 2.92638 7.47852 2.11337C4.09693 0.812757 1.08384 1.67983 0 2.27595Z" fill="#792F2F"/>
<path d="M13.5637 24.8556L23.0858 37.8803C25.5245 35.2791 29.5889 33.003 33.4907 32.5153C37.3926 32.0276 38.7145 32.0353 41.1318 31.3773C43.8509 30.6372 45.5387 29.7801 46.822 28.6135C48.6103 26.9877 49.8307 24.7254 50.0735 23.2484C50.1888 22.7873 50.3184 21.6518 50.3987 20.3221C50.5447 17.9017 50.4127 14.7613 50.2361 13.3316C49.9109 16.5828 49.581 19.0601 48.9355 20.9724C48.0458 23.6083 46.6594 25.0368 46.0089 25.6834C45.0241 26.6626 43.733 27.638 39.8312 27.638C35.9294 27.638 32.1901 25.831 28.4508 24.8556C25.9117 24.1932 24.549 23.5736 20.8096 23.2449C17.922 22.9911 14.3846 24.2866 13.5637 24.8556Z" fill="#A82C2C"/>
</svg>
