<?xml version="1.0" encoding="iso-8859-1"?>
<!-- Generator: Adobe Illustrator 19.0.0, SVG Export Plug-In . SVG Version: 6.00 Build 0)  -->
<svg version="1.1" id="Capa_1" xmlns="http://www.w3.org/2000/svg" xmlns:xlink="http://www.w3.org/1999/xlink" x="0px" y="0px"
	 viewBox="0 0 512 512" style="enable-background:new 0 0 512 512;" xml:space="preserve">
<g>
	<g>
		<path d="M469.333,64h-320c-14.72,0-26.347,7.467-34.027,18.773L0,255.893l115.307,173.12C122.987,440.32,134.613,448,149.333,448
			h320C492.907,448,512,428.907,512,405.333V106.667C512,83.093,492.907,64,469.333,64z M405.333,332.48l-30.187,30.187
			l-76.48-76.48l-76.48,76.48L192,332.48L268.48,256L192,179.52l30.187-30.187l76.48,76.48l76.48-76.48l30.187,30.187L328.853,256
			L405.333,332.48z"/>
	</g>
</g>
<g>
</g>
<g>
</g>
<g>
</g>
<g>
</g>
<g>
</g>
<g>
</g>
<g>
</g>
<g>
</g>
<g>
</g>
<g>
</g>
<g>
</g>
<g>
</g>
<g>
</g>
<g>
</g>
<g>
</g>
</svg>
