<svg width="188" height="188" viewBox="0 0 188 188" fill="none" xmlns="http://www.w3.org/2000/svg">
<g clip-path="url(#clip0)">
<path d="M174.412 90.3285H147.235V3.67225C147.235 2.18735 146.34 0.848213 144.969 0.279806C143.596 -0.288967 142.017 0.0260799 140.967 1.0755L130.565 11.4772L120.164 1.07587C118.73 -0.357998 116.405 -0.357998 114.971 1.07587L104.569 11.4776L94.1683 1.07587C92.7344 -0.357998 90.4094 -0.357998 88.9752 1.07587L78.5735 11.4776L68.1714 1.07587C66.7376 -0.357998 64.4125 -0.357998 62.9787 1.07587L52.577 11.4776L42.176 1.07587C40.7421 -0.357998 38.4171 -0.357998 36.9829 1.07587L26.5812 11.4776L16.1799 1.07587C14.7548 -0.349186 12.45 -0.356529 11.0124 1.05567C10.2575 1.79776 9.89142 2.7866 9.91676 3.76882V168.907C9.91676 179.435 18.4818 188 29.0098 188H158.985C158.986 188 158.986 188 158.987 188C158.988 188 158.989 188 158.99 188C169.518 188 178.083 179.435 178.083 168.907V94C178.083 91.972 176.44 90.3285 174.412 90.3285ZM29.0098 180.656C22.5307 180.656 17.2601 175.385 17.2601 168.907V12.5417L23.9848 19.2663C25.4187 20.7002 27.7437 20.7002 29.1779 19.2663L39.5796 8.86465L49.9813 19.2663C51.4152 20.7002 53.7402 20.7002 55.1745 19.2663L65.5761 8.86465L75.9782 19.2663C77.4121 20.7002 79.7371 20.7002 81.171 19.2663L91.5726 8.86465L101.974 19.2663C103.408 20.7002 105.733 20.7002 107.167 19.2663L117.569 8.86465L127.971 19.2663C129.405 20.7002 131.73 20.7002 133.164 19.2663L139.894 12.5365V94C139.894 94.0334 139.898 94.0661 139.899 94.0995V168.907C139.899 173.336 141.419 177.414 143.959 180.656H29.0098ZM170.74 168.907C170.74 175.385 165.469 180.656 158.99 180.656C152.511 180.656 147.24 175.385 147.24 168.907V97.6719H170.74V168.907Z" fill="#8F8CFF"/>
<path d="M78.5763 58.3296C74.932 58.3296 71.9673 55.7908 71.9673 52.6708C71.9673 49.5505 74.9323 47.0117 78.5763 47.0117C82.2206 47.0117 85.1853 49.5505 85.1853 52.6708C85.1853 54.6988 86.8292 56.3427 88.8572 56.3427C90.8852 56.3427 92.5291 54.6988 92.5291 52.6708C92.5291 46.6853 88.1654 41.635 82.2482 40.1288V37.6415C82.2482 35.6135 80.6043 33.9696 78.5763 33.9696C76.5483 33.9696 74.9044 35.6135 74.9044 37.6415V40.1288C68.9868 41.635 64.6235 46.6857 64.6235 52.6708C64.6235 59.8402 70.883 65.6729 78.5763 65.6729C82.2206 65.6729 85.1853 68.2117 85.1853 71.332C85.1853 74.4524 82.2206 76.9908 78.5763 76.9908C74.932 76.9908 71.9673 74.452 71.9673 71.332C71.9673 69.3041 70.3234 67.6602 68.2954 67.6602C66.2674 67.6602 64.6235 69.3041 64.6235 71.332C64.6235 77.3176 68.9872 82.3679 74.9044 83.8741V86.8703C74.9044 88.8983 76.5483 90.5422 78.5763 90.5422C80.6043 90.5422 82.2482 88.8983 82.2482 86.8703V83.8741C88.1658 82.3679 92.5291 77.3176 92.5291 71.332C92.5291 64.1627 86.2696 58.3296 78.5763 58.3296Z" fill="#8F8CFF"/>
<path d="M115.466 58.3299H108.31C106.282 58.3299 104.638 59.9738 104.638 62.0018C104.638 64.0298 106.282 65.6737 108.31 65.6737H115.466C117.494 65.6737 119.138 64.0298 119.138 62.0018C119.138 59.9738 117.494 58.3299 115.466 58.3299Z" fill="#8F8CFF"/>
<path d="M48.8435 58.3299H41.687C39.659 58.3299 38.0151 59.9738 38.0151 62.0018C38.0151 64.0298 39.659 65.6737 41.687 65.6737H48.8435C50.8715 65.6737 52.5154 64.0298 52.5154 62.0018C52.5154 59.9738 50.8715 58.3299 48.8435 58.3299Z" fill="#8F8CFF"/>
<path d="M117.324 99.1432H59.1528C57.1249 99.1432 55.481 100.787 55.481 102.815C55.481 104.843 57.1249 106.487 59.1528 106.487H117.324C119.352 106.487 120.996 104.843 120.996 102.815C120.995 100.787 119.352 99.1432 117.324 99.1432Z" fill="#8F8CFF"/>
<path d="M42.4241 100.219C41.7412 99.5361 40.7938 99.1432 39.8281 99.1432C38.8624 99.1432 37.9151 99.5361 37.2321 100.219C36.5491 100.902 36.1562 101.849 36.1562 102.815C36.1562 103.781 36.5491 104.728 37.2321 105.411C37.9151 106.094 38.8624 106.487 39.8281 106.487C40.7938 106.487 41.7412 106.094 42.4241 105.411C43.1071 104.728 43.5 103.781 43.5 102.815C43.5 101.849 43.1071 100.902 42.4241 100.219Z" fill="#8F8CFF"/>
<path d="M117.324 123.377H59.1528C57.1249 123.377 55.481 125.021 55.481 127.049C55.481 129.077 57.1249 130.721 59.1528 130.721H117.324C119.352 130.721 120.996 129.077 120.996 127.049C120.995 125.021 119.352 123.377 117.324 123.377Z" fill="#8F8CFF"/>
<path d="M42.4241 124.453C41.7412 123.77 40.7938 123.377 39.8281 123.377C38.8624 123.377 37.9151 123.77 37.2321 124.453C36.5491 125.136 36.1562 126.083 36.1562 127.049C36.1562 128.014 36.5491 128.962 37.2321 129.645C37.9151 130.328 38.8624 130.721 39.8281 130.721C40.7938 130.721 41.7412 130.328 42.4241 129.645C43.1071 128.962 43.5 128.014 43.5 127.049C43.5 126.083 43.1071 125.136 42.4241 124.453Z" fill="#8F8CFF"/>
<path d="M117.324 147.61H59.1528C57.1249 147.61 55.481 149.254 55.481 151.282C55.481 153.31 57.1249 154.954 59.1528 154.954H117.324C119.352 154.954 120.996 153.31 120.996 151.282C120.996 149.254 119.352 147.61 117.324 147.61Z" fill="#8F8CFF"/>
<path d="M42.4241 148.686C41.7412 148.003 40.7938 147.61 39.8281 147.61C38.8624 147.61 37.9151 148.003 37.2321 148.686C36.5491 149.369 36.1562 150.317 36.1562 151.282C36.1562 152.248 36.5491 153.195 37.2321 153.878C37.9151 154.561 38.8624 154.954 39.8281 154.954C40.7938 154.954 41.7412 154.561 42.4241 153.878C43.1071 153.195 43.5 152.248 43.5 151.282C43.5 150.317 43.1071 149.369 42.4241 148.686Z" fill="#8F8CFF"/>
</g>
<defs>
<clipPath id="clip0">
<rect width="188" height="188" fill="white"/>
</clipPath>
</defs>
</svg>
