<svg width="202" height="202" viewBox="0 0 202 202" fill="none" xmlns="http://www.w3.org/2000/svg">
<path d="M194.288 37.3614L70.5724 11.1798C65.3382 10.0724 60.1502 13.4493 59.0428 18.6835L56.6924 33.7881L199.439 63.9955L201.789 48.891C202.897 43.6587 199.522 38.4691 194.288 37.3614Z" fill="#8F8CFF"/>
<path d="M142.262 67.1988C140.817 61.995 135.379 58.9191 130.177 60.3618L106.691 66.8816L51.3249 55.1642L45.2358 83.9346L7.19093 94.4941C1.98906 95.9372 -1.08684 101.375 0.355889 106.578L21.7964 183.839C23.2415 189.041 28.68 192.119 33.8818 190.674L156.868 156.544C162.07 155.099 165.145 149.663 163.703 144.459L160.022 131.195L173.816 134.111C179.05 135.221 184.238 131.844 185.345 126.61L194.072 85.372L144.388 74.8584L142.262 67.1988ZM156.465 106.466L159.507 92.0912C159.964 89.9388 162.098 88.5506 164.25 89.0051L178.625 92.0486C180.779 92.5054 182.168 94.6373 181.713 96.7917L178.672 111.167C178.215 113.319 176.081 114.709 173.929 114.253L159.553 111.211C157.397 110.753 156.008 108.619 156.465 106.466ZM9.33109 102.204L43.366 92.7622L123.671 70.4771L132.313 68.0762C132.47 68.0336 132.628 68.0134 132.782 68.0134C133.475 68.0134 134.304 68.4683 134.546 69.3393L135.56 72.9932L138.739 84.4478L12.2614 119.546L8.06792 104.439C7.80518 103.491 8.38346 102.467 9.33109 102.204ZM155.99 146.597C156.152 147.183 155.982 147.668 155.81 147.971C155.641 148.274 155.313 148.67 154.727 148.832L31.7437 182.962C31.5882 183.004 31.4284 183.026 31.2746 183.026C30.5815 183.026 29.7527 182.57 29.5104 181.699L17.0048 136.633L143.483 101.533L151.197 129.327L155.99 146.597Z" fill="#8F8CFF"/>
<path d="M51.6158 149.68C51.0256 147.558 48.8106 146.305 46.6886 146.894L32.3257 150.881C30.2056 151.469 28.9507 153.686 29.5409 155.808L33.5261 170.169C34.1163 172.291 36.3314 173.544 38.4534 172.954L52.8163 168.968C54.9383 168.38 56.1912 166.163 55.603 164.041L51.6158 149.68Z" fill="#8F8CFF"/>
</svg>
