<svg width="200" height="200" viewBox="0 0 200 200" fill="none" xmlns="http://www.w3.org/2000/svg">
<g clip-path="url(#clip0)">
<path d="M92.2868 135.651C93.8142 134.123 93.8142 131.651 92.2868 130.124C90.758 128.601 88.2812 128.601 86.7508 130.124C85.225 131.651 85.225 134.123 86.7508 135.651C88.2812 137.173 90.758 137.173 92.2868 135.651Z" fill="#8F8CFF"/>
<path d="M73.7568 42.9566C73.7568 66.6428 93.0649 85.9146 116.797 85.9146C140.53 85.9146 159.838 66.6428 159.838 42.9566C159.838 19.2703 140.53 0 116.797 0C93.0649 0 73.7568 19.2703 73.7568 42.9566ZM152.013 42.9566C152.013 62.3368 136.216 78.1037 116.797 78.1037C97.3793 78.1037 81.5816 62.3368 81.5816 42.9566C81.5816 23.5779 97.3793 7.81098 116.797 7.81098C136.216 7.81098 152.013 23.5779 152.013 42.9566Z" fill="#8F8CFF"/>
<path d="M45.2653 198.845C46.782 200.371 49.2511 200.388 50.7876 198.877L69.7577 180.225C72.9806 177.008 73.9606 172.246 72.5433 168.106L76.6239 164.179C78.8209 162.061 81.7135 160.893 84.7712 160.893H136.788C146.016 160.893 154.738 157.356 161.351 150.934C161.623 150.67 159.285 153.418 196.837 108.624C202.407 102.048 201.573 92.1723 194.978 86.6074C188.424 81.0944 178.605 81.8863 173.02 88.35L149.931 112.035C147.016 108.453 142.57 106.221 137.766 106.221H94.134C87.9252 103.629 81.3374 102.316 74.54 102.316C55.6983 102.316 39.2462 111.002 30.417 127.286C26.6973 126.582 22.7742 127.705 19.9519 130.522L1.33797 149.155C-0.18172 150.676 -0.184778 153.137 1.33186 154.663L45.2653 198.845ZM74.5385 110.126C80.5317 110.126 86.326 111.33 91.7642 113.704C92.2596 113.921 92.7932 114.032 93.3328 114.032H137.766C142.009 114.032 145.592 117.485 145.592 121.841C145.592 126.149 142.082 129.652 137.766 129.652H105.842C103.682 129.652 101.93 131.401 101.93 133.557C101.93 135.715 103.682 137.462 105.842 137.462H137.766C146.397 137.462 153.417 130.455 153.417 121.841C153.417 121.155 153.368 120.474 153.28 119.8C175.615 96.8857 178.764 93.6661 178.899 93.5059C181.687 90.2207 186.638 89.8041 189.931 92.5751C193.227 95.3568 193.645 100.295 190.848 103.598L155.753 145.471C150.629 150.382 143.9 153.084 136.788 153.084H84.7712C79.674 153.084 74.8489 155.029 71.1888 158.559L67.8635 161.762L37.2097 131.169C44.374 117.755 57.8173 110.126 74.5385 110.126ZM25.4895 136.041C26.7798 134.753 28.7612 134.522 30.3344 135.492C31.0117 135.904 29.067 134.137 64.2248 169.177C65.7888 170.738 65.7047 173.225 64.2462 174.681L48.0738 190.582L9.62748 151.918L25.4895 136.041Z" fill="#8F8CFF"/>
<path d="M112.103 19.5267V24.1028C107.548 25.7142 104.276 30.0553 104.276 35.1472C104.276 41.6062 109.542 46.8629 116.015 46.8629C118.172 46.8629 119.927 48.6146 119.927 50.7676C119.927 52.9206 118.172 54.6723 116.015 54.6723C114.344 54.6723 112.538 53.624 110.935 51.7182C109.543 50.0672 107.076 49.8551 105.422 51.2421C103.767 52.6307 103.553 55.0935 104.945 56.7445C107.036 59.2271 109.496 60.9574 112.103 61.8302V66.388C112.103 68.5456 113.855 70.2928 116.015 70.2928C118.175 70.2928 119.927 68.5456 119.927 66.388V61.8119C124.482 60.1991 127.754 55.8579 127.754 50.7676C127.754 44.307 122.488 39.0519 116.015 39.0519C113.858 39.0519 112.103 37.3002 112.103 35.1472C112.103 32.9942 113.858 31.2409 116.015 31.2409C117.402 31.2409 118.865 31.9474 120.247 33.2825C121.8 34.7825 124.277 34.7413 125.78 33.1925C127.283 31.6422 127.242 29.1703 125.69 27.6704C123.704 25.7523 121.716 24.6674 119.927 24.0754V19.5267C119.927 17.3691 118.175 15.6205 116.015 15.6205C113.855 15.6205 112.103 17.3691 112.103 19.5267Z" fill="#8F8CFF"/>
</g>
<defs>
<clipPath id="clip0">
<rect width="200" height="200" fill="white"/>
</clipPath>
</defs>
</svg>
